<svg xmlns="http://www.w3.org/2000/svg" xmlns:xlink="http://www.w3.org/1999/xlink" width="60" zoomAndPan="magnify" viewBox="0 0 45 44.999999" height="60" preserveAspectRatio="xMidYMid meet" version="1.0"><defs><clipPath id="id1"><path d="M 10.351562 0 L 34.351562 0 L 34.351562 45 L 10.351562 45 Z M 10.351562 0 " clip-rule="nonzero"/></clipPath><clipPath id="id2"><path d="M 1.558594 17.730469 L 10.558594 17.730469 L 10.558594 27.480469 L 1.558594 27.480469 Z M 1.558594 17.730469 " clip-rule="nonzero"/></clipPath><clipPath id="id3"><path d="M 34.4375 17.519531 L 43.4375 17.519531 L 43.4375 27.269531 L 34.4375 27.269531 Z M 34.4375 17.519531 " clip-rule="nonzero"/></clipPath></defs><g clip-path="url(#id1)"><path fill="rgb(6.269836%, 5.879211%, 5.099487%)" d="M 33.019531 41.1875 C 33.019531 42.546875 31.929688 43.648438 30.589844 43.648438 L 14.117188 43.648438 C 12.777344 43.648438 11.6875 42.546875 11.6875 41.1875 L 11.6875 3.8125 C 11.6875 2.453125 12.777344 1.351562 14.117188 1.351562 L 15.984375 1.351562 L 16.347656 2.246094 C 16.605469 2.894531 17.222656 3.316406 17.914062 3.316406 L 26.792969 3.316406 C 27.484375 3.316406 28.101562 2.894531 28.363281 2.246094 L 28.726562 1.351562 L 30.589844 1.351562 C 31.929688 1.351562 33.019531 2.453125 33.019531 3.8125 Z M 30.589844 0 L 14.117188 0 C 12.042969 0 10.355469 1.710938 10.355469 3.8125 L 10.355469 41.1875 C 10.355469 43.289062 12.042969 45 14.117188 45 L 30.589844 45 C 32.667969 45 34.355469 43.289062 34.355469 41.1875 L 34.355469 3.8125 C 34.355469 1.710938 32.667969 0 30.589844 0 " fill-opacity="1" fill-rule="nonzero"/></g><g clip-path="url(#id2)"><path fill="rgb(0%, 0%, 0%)" d="M 10.472656 23.816406 C 9.851562 23.816406 9.34375 23.292969 9.34375 22.65625 C 9.34375 22.019531 9.851562 21.496094 10.472656 21.496094 C 11.097656 21.496094 11.609375 22.019531 11.609375 22.65625 C 11.609375 23.292969 11.097656 23.816406 10.472656 23.816406 Z M 17.796875 27.472656 C 17.675781 27.472656 17.554688 27.441406 17.445312 27.378906 C 17.277344 27.28125 17.160156 27.128906 17.105469 26.941406 C 17.054688 26.75 17.078125 26.550781 17.171875 26.378906 C 18.039062 24.796875 18.324219 22.949219 17.976562 21.167969 C 17.820312 20.339844 17.53125 19.558594 17.125 18.839844 C 16.929688 18.488281 17.046875 18.039062 17.386719 17.835938 C 17.5 17.769531 17.625 17.734375 17.75 17.734375 C 18.003906 17.734375 18.242188 17.875 18.371094 18.105469 C 18.855469 18.964844 19.199219 19.898438 19.390625 20.882812 C 19.800781 23.007812 19.460938 25.214844 18.425781 27.097656 C 18.296875 27.332031 18.058594 27.472656 17.796875 27.472656 Z M 12.910156 25.515625 C 12.730469 25.515625 12.558594 25.449219 12.425781 25.320312 C 12.28125 25.191406 12.199219 25.007812 12.191406 24.8125 C 12.183594 24.617188 12.25 24.429688 12.382812 24.285156 C 12.886719 23.71875 13.105469 22.933594 12.960938 22.183594 C 12.871094 21.726562 12.660156 21.3125 12.34375 20.980469 C 12.070312 20.6875 12.074219 20.21875 12.359375 19.941406 C 12.496094 19.804688 12.671875 19.734375 12.859375 19.734375 C 13.054688 19.734375 13.238281 19.8125 13.375 19.957031 C 13.886719 20.488281 14.230469 21.160156 14.371094 21.898438 C 14.605469 23.109375 14.253906 24.375 13.4375 25.28125 C 13.304688 25.429688 13.109375 25.515625 12.910156 25.515625 Z M 15.378906 26.511719 C 15.242188 26.511719 15.105469 26.472656 14.988281 26.398438 C 14.828125 26.289062 14.71875 26.128906 14.675781 25.933594 C 14.636719 25.742188 14.671875 25.546875 14.773438 25.378906 C 15.472656 24.277344 15.71875 22.960938 15.46875 21.675781 C 15.347656 21.019531 15.097656 20.410156 14.734375 19.855469 C 14.625 19.695312 14.589844 19.5 14.625 19.304688 C 14.664062 19.113281 14.769531 18.945312 14.929688 18.835938 C 15.050781 18.757812 15.1875 18.714844 15.328125 18.714844 C 15.570312 18.714844 15.796875 18.835938 15.929688 19.039062 C 16.398438 19.753906 16.71875 20.546875 16.882812 21.390625 C 17.203125 23.054688 16.882812 24.753906 15.984375 26.175781 C 15.851562 26.386719 15.625 26.511719 15.378906 26.511719 Z M 3.324219 27.472656 C 3.0625 27.472656 2.824219 27.332031 2.695312 27.097656 C 1.660156 25.214844 1.316406 23.007812 1.730469 20.882812 C 1.921875 19.898438 2.265625 18.964844 2.75 18.105469 C 2.878906 17.875 3.117188 17.734375 3.371094 17.734375 C 3.496094 17.734375 3.621094 17.769531 3.730469 17.835938 C 4.074219 18.039062 4.191406 18.488281 3.996094 18.839844 C 3.589844 19.558594 3.300781 20.339844 3.144531 21.167969 C 2.792969 22.949219 3.082031 24.800781 3.949219 26.378906 C 4.042969 26.550781 4.066406 26.75 4.015625 26.941406 C 3.964844 27.128906 3.839844 27.28125 3.671875 27.378906 C 3.566406 27.441406 3.445312 27.472656 3.324219 27.472656 Z M 8.210938 25.515625 C 8.007812 25.515625 7.816406 25.429688 7.683594 25.28125 C 6.867188 24.375 6.515625 23.109375 6.75 21.898438 C 6.894531 21.160156 7.234375 20.488281 7.742188 19.957031 C 7.882812 19.8125 8.066406 19.734375 8.261719 19.734375 C 8.445312 19.734375 8.628906 19.804688 8.761719 19.941406 C 9.046875 20.21875 9.050781 20.6875 8.773438 20.980469 C 8.460938 21.3125 8.25 21.726562 8.160156 22.183594 C 8.015625 22.933594 8.234375 23.71875 8.738281 24.285156 C 8.871094 24.429688 8.9375 24.617188 8.925781 24.8125 C 8.921875 25.007812 8.835938 25.191406 8.695312 25.320312 C 8.5625 25.449219 8.386719 25.515625 8.210938 25.515625 Z M 5.742188 26.511719 C 5.496094 26.511719 5.269531 26.386719 5.136719 26.175781 C 4.238281 24.753906 3.917969 23.054688 4.238281 21.390625 C 4.402344 20.546875 4.722656 19.753906 5.191406 19.039062 C 5.324219 18.835938 5.550781 18.714844 5.789062 18.714844 C 5.933594 18.714844 6.070312 18.757812 6.191406 18.835938 C 6.351562 18.945312 6.457031 19.113281 6.496094 19.304688 C 6.53125 19.5 6.496094 19.695312 6.386719 19.855469 C 6.019531 20.410156 5.773438 21.019531 5.652344 21.675781 C 5.402344 22.960938 5.648438 24.277344 6.34375 25.378906 C 6.445312 25.546875 6.484375 25.742188 6.445312 25.933594 C 6.402344 26.128906 6.289062 26.289062 6.128906 26.398438 C 6.015625 26.472656 5.878906 26.511719 5.742188 26.511719 Z M 5.742188 26.511719 " fill-opacity="1" fill-rule="nonzero"/></g><g clip-path="url(#id3)"><path fill="rgb(0%, 0%, 0%)" d="M 34.523438 21.183594 C 35.148438 21.183594 35.65625 21.707031 35.65625 22.34375 C 35.65625 22.980469 35.148438 23.5 34.523438 23.5 C 33.898438 23.5 33.390625 22.980469 33.390625 22.34375 C 33.390625 21.707031 33.898438 21.183594 34.523438 21.183594 Z M 27.203125 17.523438 C 27.324219 17.523438 27.445312 17.558594 27.550781 17.617188 C 27.722656 17.714844 27.839844 17.871094 27.894531 18.058594 C 27.945312 18.25 27.921875 18.449219 27.828125 18.621094 C 26.960938 20.199219 26.671875 22.050781 27.019531 23.832031 C 27.179688 24.65625 27.464844 25.441406 27.875 26.160156 C 28.070312 26.511719 27.953125 26.960938 27.609375 27.164062 C 27.5 27.230469 27.375 27.261719 27.25 27.261719 C 26.996094 27.261719 26.757812 27.125 26.628906 26.894531 C 26.144531 26.035156 25.800781 25.101562 25.609375 24.113281 C 25.195312 21.992188 25.539062 19.785156 26.574219 17.898438 C 26.703125 17.667969 26.941406 17.523438 27.203125 17.523438 Z M 32.089844 19.484375 C 32.265625 19.484375 32.441406 19.550781 32.574219 19.675781 C 32.71875 19.808594 32.796875 19.992188 32.804688 20.1875 C 32.8125 20.382812 32.746094 20.570312 32.617188 20.714844 C 32.109375 21.28125 31.894531 22.066406 32.039062 22.8125 C 32.128906 23.269531 32.339844 23.6875 32.65625 24.019531 C 32.929688 24.3125 32.921875 24.777344 32.640625 25.058594 C 32.503906 25.191406 32.324219 25.265625 32.140625 25.265625 C 31.941406 25.265625 31.761719 25.1875 31.621094 25.042969 C 31.113281 24.507812 30.769531 23.835938 30.628906 23.101562 C 30.394531 21.890625 30.746094 20.625 31.5625 19.71875 C 31.695312 19.570312 31.886719 19.484375 32.089844 19.484375 Z M 29.621094 18.484375 C 29.757812 18.484375 29.894531 18.527344 30.011719 18.601562 C 30.167969 18.710938 30.28125 18.871094 30.320312 19.0625 C 30.363281 19.253906 30.324219 19.453125 30.222656 19.617188 C 29.527344 20.722656 29.28125 22.039062 29.527344 23.324219 C 29.652344 23.976562 29.898438 24.589844 30.261719 25.140625 C 30.371094 25.304688 30.410156 25.5 30.371094 25.695312 C 30.335938 25.886719 30.226562 26.050781 30.066406 26.160156 C 29.949219 26.242188 29.8125 26.285156 29.667969 26.285156 C 29.429688 26.285156 29.203125 26.164062 29.070312 25.960938 C 28.601562 25.246094 28.28125 24.453125 28.117188 23.609375 C 27.796875 21.945312 28.117188 20.246094 29.015625 18.824219 C 29.148438 18.609375 29.375 18.484375 29.621094 18.484375 Z M 41.675781 17.523438 C 41.933594 17.523438 42.175781 17.667969 42.300781 17.898438 C 43.339844 19.785156 43.679688 21.992188 43.269531 24.113281 C 43.078125 25.101562 42.734375 26.035156 42.25 26.894531 C 42.121094 27.125 41.882812 27.261719 41.628906 27.261719 C 41.503906 27.261719 41.378906 27.230469 41.265625 27.164062 C 40.925781 26.960938 40.808594 26.511719 41.003906 26.160156 C 41.410156 25.441406 41.699219 24.65625 41.855469 23.832031 C 42.203125 22.050781 41.917969 20.199219 41.050781 18.621094 C 40.957031 18.449219 40.933594 18.25 40.984375 18.058594 C 41.035156 17.871094 41.15625 17.714844 41.324219 17.617188 C 41.433594 17.558594 41.554688 17.523438 41.675781 17.523438 Z M 36.789062 19.484375 C 36.988281 19.484375 37.183594 19.570312 37.316406 19.71875 C 38.132812 20.625 38.484375 21.890625 38.25 23.101562 C 38.105469 23.835938 37.761719 24.507812 37.253906 25.042969 C 37.117188 25.1875 36.933594 25.265625 36.738281 25.265625 C 36.554688 25.265625 36.371094 25.191406 36.238281 25.058594 C 35.953125 24.777344 35.949219 24.3125 36.222656 24.019531 C 36.539062 23.6875 36.75 23.269531 36.839844 22.8125 C 36.984375 22.066406 36.765625 21.28125 36.261719 20.714844 C 36.128906 20.570312 36.0625 20.382812 36.070312 20.1875 C 36.078125 19.992188 36.160156 19.808594 36.304688 19.675781 C 36.4375 19.550781 36.609375 19.484375 36.789062 19.484375 Z M 39.257812 18.484375 C 39.503906 18.484375 39.730469 18.609375 39.863281 18.824219 C 40.761719 20.246094 41.082031 21.945312 40.757812 23.609375 C 40.597656 24.453125 40.273438 25.246094 39.804688 25.960938 C 39.675781 26.164062 39.449219 26.285156 39.210938 26.285156 C 39.066406 26.285156 38.929688 26.242188 38.808594 26.160156 C 38.648438 26.050781 38.542969 25.886719 38.503906 25.695312 C 38.46875 25.5 38.503906 25.304688 38.613281 25.140625 C 38.976562 24.589844 39.226562 23.976562 39.347656 23.324219 C 39.597656 22.039062 39.351562 20.722656 38.65625 19.617188 C 38.550781 19.453125 38.515625 19.253906 38.554688 19.0625 C 38.59375 18.871094 38.707031 18.710938 38.867188 18.601562 C 38.984375 18.527344 39.121094 18.484375 39.257812 18.484375 Z M 39.257812 18.484375 " fill-opacity="1" fill-rule="nonzero"/></g></svg>