<svg xmlns="http://www.w3.org/2000/svg" xmlns:xlink="http://www.w3.org/1999/xlink" width="60" zoomAndPan="magnify" viewBox="0 0 45 44.999999" height="60" preserveAspectRatio="xMidYMid meet" version="1.0"><defs><clipPath id="id1"><path d="M 14 22 L 26 22 L 26 44.707031 L 14 44.707031 Z M 14 22 " clip-rule="nonzero"/></clipPath><clipPath id="id2"><path d="M 20.3125 32.144531 L 28.261719 32.144531 L 28.261719 44.644531 L 20.3125 44.644531 Z M 20.3125 32.144531 " clip-rule="nonzero"/></clipPath><clipPath id="id3"><path d="M 5.789062 9 L 12 9 L 12 23 L 5.789062 23 Z M 5.789062 9 " clip-rule="nonzero"/></clipPath><clipPath id="id4"><path d="M 30.644531 7.195312 L 39.539062 7.195312 L 39.539062 19.726562 L 30.644531 19.726562 Z M 30.644531 7.195312 " clip-rule="nonzero"/></clipPath><clipPath id="id5"><path d="M 11 0.457031 L 23 0.457031 L 23 6 L 11 6 Z M 11 0.457031 " clip-rule="nonzero"/></clipPath><clipPath id="id6"><path d="M 23 0.457031 L 37 0.457031 L 37 8 L 23 8 Z M 23 0.457031 " clip-rule="nonzero"/></clipPath></defs><g clip-path="url(#id1)"><path fill="rgb(0%, 0%, 0%)" d="M 17.636719 44.050781 C 17.378906 44.050781 17.125 43.941406 16.949219 43.730469 C 16.628906 43.351562 16.679688 42.789062 17.058594 42.472656 C 21.367188 38.886719 23.949219 34.046875 24.148438 29.191406 C 24.222656 27.367188 23.785156 25.875 23.414062 25.164062 C 23.265625 25.734375 23.089844 26.917969 23.175781 29.265625 C 23.3125 33.179688 20.820312 37.40625 15.550781 42.1875 C 15.183594 42.519531 14.613281 42.492188 14.28125 42.128906 C 13.945312 41.765625 13.972656 41.199219 14.339844 40.867188 C 19.195312 36.460938 21.5 32.6875 21.378906 29.328125 C 21.210938 24.632812 21.960938 23.578125 22.632812 23.183594 C 23.066406 22.925781 23.578125 22.9375 24.035156 23.207031 C 25.351562 23.988281 26.039062 26.902344 25.945312 29.265625 C 25.726562 34.621094 22.90625 39.933594 18.214844 43.839844 C 18.046875 43.980469 17.839844 44.050781 17.636719 44.050781 " fill-opacity="1" fill-rule="nonzero"/></g><path fill="rgb(0%, 0%, 0%)" d="M 12.699219 40.019531 C 12.484375 40.019531 12.265625 39.941406 12.09375 39.785156 C 11.726562 39.449219 11.703125 38.886719 12.035156 38.523438 L 12.742188 37.757812 C 16.113281 34.105469 17.808594 32.269531 18.238281 28.753906 C 18.300781 28.265625 18.746094 27.914062 19.238281 27.976562 C 19.730469 28.035156 20.082031 28.480469 20.023438 28.96875 C 19.519531 33.054688 17.46875 35.28125 14.0625 38.964844 L 13.363281 39.726562 C 13.183594 39.921875 12.941406 40.019531 12.699219 40.019531 " fill-opacity="1" fill-rule="nonzero"/><path fill="rgb(0%, 0%, 0%)" d="M 27.824219 30.828125 C 27.804688 30.828125 27.785156 30.828125 27.761719 30.828125 C 27.269531 30.792969 26.894531 30.371094 26.925781 29.878906 C 26.945312 29.578125 26.953125 29.285156 26.949219 29.007812 C 26.910156 25.382812 25.964844 23.816406 25.203125 22.558594 C 24.449219 21.308594 23.460938 20.671875 22.617188 20.886719 C 21.6875 21.121094 20.554688 22.550781 20.421875 25.8125 C 20.398438 26.304688 19.976562 26.6875 19.484375 26.667969 C 18.988281 26.648438 18.605469 26.230469 18.625 25.738281 C 18.773438 22.140625 20.101562 19.679688 22.171875 19.152344 C 23.816406 18.738281 25.5625 19.683594 26.734375 21.628906 C 27.570312 23.007812 28.703125 24.878906 28.746094 28.988281 C 28.75 29.3125 28.742188 29.648438 28.71875 29.992188 C 28.6875 30.464844 28.292969 30.828125 27.824219 30.828125 " fill-opacity="1" fill-rule="nonzero"/><g clip-path="url(#id2)"><path fill="rgb(0%, 0%, 0%)" d="M 21.226562 44.644531 C 20.988281 44.644531 20.75 44.550781 20.574219 44.367188 C 20.230469 44.007812 20.246094 43.441406 20.605469 43.101562 C 23.339844 40.519531 25.46875 36.785156 26.441406 32.859375 C 26.5625 32.378906 27.046875 32.085938 27.53125 32.207031 C 28.011719 32.324219 28.304688 32.808594 28.1875 33.289062 C 27.132812 37.535156 24.820312 41.585938 21.84375 44.398438 C 21.671875 44.5625 21.449219 44.644531 21.226562 44.644531 " fill-opacity="1" fill-rule="nonzero"/></g><path fill="rgb(0%, 0%, 0%)" d="M 10.667969 36.859375 C 10.425781 36.859375 10.1875 36.761719 10.007812 36.570312 C 9.671875 36.210938 9.691406 35.644531 10.054688 35.308594 C 14.832031 30.90625 15.335938 27.453125 15.925781 23.453125 C 16.070312 22.472656 16.21875 21.457031 16.433594 20.386719 C 16.847656 18.320312 17.96875 16.710938 19.585938 15.851562 C 21.125 15.03125 23.011719 14.972656 24.761719 15.6875 C 25.21875 15.875 25.4375 16.398438 25.25 16.855469 C 25.0625 17.3125 24.535156 17.527344 24.078125 17.339844 C 22.808594 16.820312 21.515625 16.851562 20.433594 17.425781 C 19.296875 18.03125 18.503906 19.207031 18.195312 20.734375 C 17.988281 21.761719 17.84375 22.753906 17.703125 23.710938 C 17.09375 27.863281 16.515625 31.789062 11.277344 36.621094 C 11.105469 36.777344 10.886719 36.859375 10.667969 36.859375 " fill-opacity="1" fill-rule="nonzero"/><path fill="rgb(0%, 0%, 0%)" d="M 25.273438 43.820312 C 25.039062 43.820312 24.808594 43.730469 24.628906 43.550781 C 24.285156 43.195312 24.292969 42.632812 24.648438 42.289062 C 27.789062 39.242188 29.519531 35.117188 29.789062 30.023438 C 30.042969 25.140625 28.808594 22.703125 27.292969 20.242188 C 26.851562 19.523438 26.734375 19.359375 26.269531 18.925781 C 25.90625 18.589844 25.886719 18.023438 26.226562 17.664062 C 26.566406 17.304688 27.136719 17.285156 27.496094 17.621094 C 28.125 18.207031 28.335938 18.511719 28.828125 19.308594 C 30.441406 21.929688 31.867188 24.730469 31.582031 30.117188 C 31.289062 35.671875 29.378906 40.199219 25.902344 43.566406 C 25.726562 43.734375 25.5 43.820312 25.273438 43.820312 " fill-opacity="1" fill-rule="nonzero"/><path fill="rgb(0%, 0%, 0%)" d="M 8.777344 32.480469 C 8.488281 32.480469 8.207031 32.339844 8.03125 32.085938 C 7.753906 31.675781 7.863281 31.121094 8.277344 30.84375 C 11.144531 28.925781 12.054688 25.859375 12.867188 22.34375 C 12.976562 21.859375 13.457031 21.5625 13.941406 21.671875 C 14.425781 21.78125 14.730469 22.261719 14.617188 22.742188 C 13.75 26.492188 12.6875 30.046875 9.28125 32.328125 C 9.125 32.429688 8.953125 32.480469 8.777344 32.480469 " fill-opacity="1" fill-rule="nonzero"/><path fill="rgb(0%, 0%, 0%)" d="M 32.730469 23.511719 C 32.328125 23.511719 31.957031 23.238281 31.859375 22.828125 C 31.226562 20.230469 30.351562 18.511719 28.738281 16.695312 C 26.492188 14.160156 23.402344 12.851562 20.679688 13.28125 C 18.691406 13.59375 17.152344 14.777344 16.351562 16.617188 C 15.992188 17.441406 15.679688 18.371094 15.371094 19.554688 C 15.246094 20.03125 14.753906 20.316406 14.273438 20.195312 C 13.792969 20.070312 13.507812 19.582031 13.632812 19.105469 C 13.964844 17.832031 14.304688 16.816406 14.703125 15.90625 C 15.742188 13.523438 17.816406 11.921875 20.398438 11.515625 C 23.773438 10.984375 27.398438 12.476562 30.085938 15.511719 C 31.886719 17.539062 32.90625 19.539062 33.605469 22.40625 C 33.722656 22.886719 33.425781 23.371094 32.945312 23.484375 C 32.871094 23.503906 32.800781 23.511719 32.730469 23.511719 " fill-opacity="1" fill-rule="nonzero"/><path fill="rgb(0%, 0%, 0%)" d="M 32.082031 38.878906 C 31.976562 38.878906 31.867188 38.863281 31.761719 38.820312 C 31.296875 38.644531 31.066406 38.128906 31.242188 37.667969 C 33.054688 32.953125 33.132812 30.566406 32.621094 27 C 32.5625 26.605469 32.503906 26.226562 32.449219 25.859375 C 32.371094 25.371094 32.703125 24.914062 33.195312 24.835938 C 33.683594 24.761719 34.144531 25.09375 34.222656 25.582031 C 34.28125 25.953125 34.339844 26.34375 34.398438 26.746094 C 34.945312 30.550781 34.863281 33.25 32.921875 38.304688 C 32.785156 38.660156 32.445312 38.878906 32.082031 38.878906 " fill-opacity="1" fill-rule="nonzero"/><path fill="rgb(0%, 0%, 0%)" d="M 8.386719 26.910156 C 8.167969 26.910156 7.945312 26.832031 7.773438 26.671875 C 7.410156 26.332031 7.390625 25.769531 7.730469 25.40625 C 9.269531 23.769531 9.550781 22.078125 9.90625 19.9375 C 10.175781 18.308594 10.480469 16.464844 11.386719 14.292969 C 12.417969 11.820312 14.375 9.863281 16.902344 8.78125 C 17.359375 8.589844 17.886719 8.796875 18.082031 9.25 C 18.28125 9.703125 18.070312 10.230469 17.613281 10.425781 C 15.519531 11.320312 13.894531 12.933594 13.046875 14.976562 C 12.222656 16.957031 11.933594 18.695312 11.679688 20.226562 C 11.308594 22.472656 10.957031 24.59375 9.042969 26.628906 C 8.867188 26.816406 8.625 26.910156 8.386719 26.910156 " fill-opacity="1" fill-rule="nonzero"/><path fill="rgb(0%, 0%, 0%)" d="M 33.132812 15.589844 C 32.851562 15.589844 32.570312 15.457031 32.394531 15.207031 C 30.945312 13.132812 28.984375 11.621094 26.402344 10.59375 C 23.914062 9.601562 22.046875 9.316406 20.160156 9.632812 C 19.667969 9.714844 19.207031 9.386719 19.125 8.902344 C 19.039062 8.414062 19.371094 7.953125 19.859375 7.871094 C 22.066406 7.5 24.292969 7.828125 27.070312 8.933594 C 29.988281 10.097656 32.214844 11.816406 33.871094 14.1875 C 34.15625 14.59375 34.054688 15.148438 33.648438 15.429688 C 33.492188 15.539062 33.3125 15.589844 33.132812 15.589844 " fill-opacity="1" fill-rule="nonzero"/><path fill="rgb(0%, 0%, 0%)" d="M 36.5 33.757812 C 36.457031 33.757812 36.414062 33.753906 36.371094 33.75 C 35.878906 33.675781 35.539062 33.222656 35.609375 32.734375 C 36.550781 26.347656 35.816406 23.941406 34.703125 20.300781 L 34.558594 19.828125 C 34.324219 19.046875 34.050781 18.308594 33.75 17.628906 C 33.550781 17.175781 33.753906 16.648438 34.207031 16.449219 C 34.664062 16.25 35.191406 16.453125 35.394531 16.90625 C 35.726562 17.652344 36.023438 18.460938 36.28125 19.308594 L 36.425781 19.78125 C 37.566406 23.511719 38.390625 26.210938 37.386719 32.996094 C 37.324219 33.4375 36.9375 33.757812 36.5 33.757812 " fill-opacity="1" fill-rule="nonzero"/><g clip-path="url(#id3)"><path fill="rgb(0%, 0%, 0%)" d="M 6.789062 22.03125 C 6.710938 22.03125 6.628906 22.019531 6.550781 22 C 6.070312 21.867188 5.789062 21.375 5.921875 20.898438 C 6.078125 20.335938 6.230469 19.640625 6.390625 18.90625 C 6.992188 16.117188 7.820312 12.292969 10.277344 9.792969 C 10.625 9.441406 11.195312 9.433594 11.550781 9.78125 C 11.90625 10.125 11.910156 10.691406 11.5625 11.042969 C 9.46875 13.175781 8.734375 16.5625 8.144531 19.285156 C 7.980469 20.042969 7.824219 20.761719 7.65625 21.375 C 7.542969 21.769531 7.183594 22.03125 6.789062 22.03125 " fill-opacity="1" fill-rule="nonzero"/></g><path fill="rgb(0%, 0%, 0%)" d="M 13.074219 9.179688 C 12.820312 9.179688 12.566406 9.070312 12.386719 8.859375 C 12.066406 8.480469 12.117188 7.917969 12.496094 7.601562 C 15.398438 5.175781 19.273438 3.863281 22.867188 4.09375 C 25.003906 4.226562 27.332031 4.84375 29.417969 5.828125 C 29.867188 6.039062 30.058594 6.570312 29.84375 7.015625 C 29.632812 7.460938 29.097656 7.652344 28.648438 7.441406 C 26.761719 6.550781 24.667969 5.996094 22.75 5.875 C 19.609375 5.675781 16.210938 6.832031 13.652344 8.96875 C 13.484375 9.109375 13.28125 9.179688 13.074219 9.179688 " fill-opacity="1" fill-rule="nonzero"/><g clip-path="url(#id4)"><path fill="rgb(0%, 0%, 0%)" d="M 38.640625 19.714844 C 38.234375 19.714844 37.863281 19.4375 37.765625 19.027344 C 36.636719 14.296875 34.519531 11.066406 31.09375 8.859375 C 30.679688 8.589844 30.558594 8.039062 30.828125 7.625 C 31.101562 7.210938 31.65625 7.09375 32.074219 7.359375 C 35.90625 9.832031 38.273438 13.410156 39.515625 18.617188 C 39.628906 19.097656 39.332031 19.578125 38.847656 19.691406 C 38.777344 19.707031 38.707031 19.714844 38.640625 19.714844 " fill-opacity="1" fill-rule="nonzero"/></g><g clip-path="url(#id5)"><path fill="rgb(0%, 0%, 0%)" d="M 12.050781 5.746094 C 11.777344 5.746094 11.503906 5.621094 11.328125 5.386719 C 11.03125 4.992188 11.117188 4.429688 11.511719 4.136719 C 14.613281 1.84375 18.136719 0.597656 21.703125 0.53125 C 22.203125 0.519531 22.609375 0.917969 22.617188 1.410156 C 22.625 1.902344 22.230469 2.308594 21.734375 2.320312 C 18.546875 2.375 15.382812 3.5 12.585938 5.570312 C 12.425781 5.691406 12.238281 5.746094 12.050781 5.746094 " fill-opacity="1" fill-rule="nonzero"/></g><g clip-path="url(#id6)"><path fill="rgb(0%, 0%, 0%)" d="M 35.433594 7.640625 C 35.195312 7.640625 34.957031 7.546875 34.78125 7.359375 C 32.214844 4.652344 28.34375 2.789062 24.421875 2.367188 C 23.925781 2.316406 23.570312 1.875 23.621094 1.382812 C 23.675781 0.894531 24.117188 0.539062 24.613281 0.589844 C 28.949219 1.054688 33.238281 3.125 36.089844 6.136719 C 36.429688 6.496094 36.410156 7.058594 36.050781 7.398438 C 35.875 7.558594 35.65625 7.640625 35.433594 7.640625 " fill-opacity="1" fill-rule="nonzero"/></g></svg>