<svg xmlns="http://www.w3.org/2000/svg" xmlns:xlink="http://www.w3.org/1999/xlink" width="60" zoomAndPan="magnify" viewBox="0 0 45 44.999999" height="60" preserveAspectRatio="xMidYMid meet" version="1.0"><defs><clipPath id="id1"><path d="M 3.234375 0.714844 L 41.484375 0.714844 L 41.484375 44.964844 L 3.234375 44.964844 Z M 3.234375 0.714844 " clip-rule="nonzero"/></clipPath></defs><g clip-path="url(#id1)"><path fill="rgb(6.269836%, 5.879211%, 5.099487%)" d="M 38.804688 35.019531 L 37.078125 37.238281 C 36.992188 37.34375 36.867188 37.410156 36.730469 37.414062 C 36.230469 37.425781 35.730469 37.449219 35.238281 37.492188 L 35.164062 36.574219 C 35.601562 36.539062 36.046875 36.515625 36.492188 36.5 L 37.796875 34.824219 C 37.507812 34.601562 37.226562 34.367188 36.953125 34.117188 L 37.570312 33.4375 C 37.929688 33.769531 38.3125 34.082031 38.710938 34.363281 C 38.8125 34.433594 38.878906 34.546875 38.898438 34.671875 C 38.914062 34.796875 38.882812 34.921875 38.804688 35.019531 Z M 34.542969 29.152344 C 34.945312 30.089844 35.449219 30.96875 36.046875 31.761719 L 35.320312 32.316406 C 34.679688 31.460938 34.136719 30.519531 33.703125 29.515625 Z M 30.28125 38.417969 L 30.019531 37.539062 C 30.96875 37.253906 31.949219 37.023438 32.9375 36.855469 L 33.089844 37.761719 C 32.136719 37.921875 31.191406 38.144531 30.28125 38.417969 Z M 27.90625 7.390625 C 26.976562 7.015625 26.070312 6.574219 25.207031 6.082031 L 25.65625 5.285156 C 26.484375 5.753906 27.355469 6.179688 28.246094 6.542969 Z M 25.652344 40.398438 L 25.203125 39.597656 C 26.0625 39.105469 26.972656 38.664062 27.898438 38.289062 L 28.242188 39.136719 C 27.351562 39.5 26.476562 39.925781 25.652344 40.398438 Z M 22.367188 14.660156 C 20.34375 14.660156 18.699219 13.003906 18.699219 10.96875 C 18.699219 8.929688 20.34375 7.277344 22.367188 7.277344 C 24.390625 7.277344 26.039062 8.929688 26.039062 10.96875 C 26.039062 13.003906 24.390625 14.660156 22.367188 14.660156 Z M 22.652344 42.472656 C 22.566406 42.542969 22.464844 42.578125 22.359375 42.578125 C 22.257812 42.578125 22.152344 42.542969 22.066406 42.472656 C 21.695312 42.160156 21.300781 41.855469 20.890625 41.5625 L 21.417969 40.8125 C 21.742188 41.042969 22.058594 41.285156 22.359375 41.527344 C 22.664062 41.28125 22.980469 41.042969 23.300781 40.8125 L 23.828125 41.5625 C 23.421875 41.855469 23.023438 42.160156 22.652344 42.472656 Z M 19.070312 40.398438 C 18.242188 39.925781 17.371094 39.503906 16.476562 39.136719 L 16.820312 38.289062 C 17.75 38.667969 18.65625 39.109375 19.519531 39.597656 Z M 11.785156 8.824219 L 11.632812 7.917969 C 12.585938 7.757812 13.53125 7.539062 14.441406 7.265625 L 14.703125 8.144531 C 13.757812 8.429688 12.773438 8.65625 11.785156 8.824219 Z M 14.4375 38.417969 C 13.527344 38.144531 12.585938 37.925781 11.632812 37.761719 L 11.785156 36.855469 C 12.773438 37.023438 13.753906 37.253906 14.699219 37.539062 Z M 9.394531 32.320312 L 8.667969 31.769531 C 9.265625 30.972656 9.773438 30.09375 10.175781 29.15625 L 11.011719 29.523438 C 10.582031 30.527344 10.039062 31.46875 9.394531 32.320312 Z M 9.484375 37.492188 C 8.992188 37.449219 8.488281 37.425781 7.988281 37.414062 C 7.855469 37.410156 7.726562 37.34375 7.640625 37.238281 L 5.914062 35.019531 C 5.839844 34.921875 5.804688 34.796875 5.824219 34.671875 C 5.839844 34.546875 5.910156 34.433594 6.011719 34.363281 C 6.40625 34.082031 6.789062 33.769531 7.152344 33.4375 L 7.765625 34.117188 C 7.496094 34.367188 7.214844 34.601562 6.921875 34.824219 L 8.226562 36.5 C 8.671875 36.515625 9.117188 36.539062 9.554688 36.574219 Z M 12.257812 24.042969 C 12.191406 25.152344 12.03125 26.21875 11.78125 27.222656 L 10.898438 27.003906 C 11.132812 26.054688 11.285156 25.039062 11.347656 23.988281 Z M 11.347656 21.695312 C 11.285156 20.644531 11.132812 19.628906 10.898438 18.679688 L 11.785156 18.457031 C 12.03125 19.460938 12.191406 20.53125 12.257812 21.640625 Z M 8.671875 13.914062 L 9.398438 13.359375 C 10.042969 14.214844 10.585938 15.15625 11.015625 16.160156 L 10.179688 16.523438 C 9.777344 15.589844 9.269531 14.710938 8.671875 13.914062 Z M 7.765625 11.558594 L 7.152344 12.238281 C 6.789062 11.90625 6.40625 11.59375 6.011719 11.316406 C 5.910156 11.242188 5.839844 11.132812 5.824219 11.007812 C 5.804688 10.882812 5.839844 10.753906 5.914062 10.65625 L 7.640625 8.441406 C 7.726562 8.332031 7.855469 8.269531 7.992188 8.265625 C 8.488281 8.253906 8.992188 8.226562 9.484375 8.1875 L 9.554688 9.101562 C 9.117188 9.136719 8.671875 9.164062 8.226562 9.175781 L 6.921875 10.851562 C 7.214844 11.074219 7.496094 11.3125 7.765625 11.558594 Z M 19.078125 5.292969 L 19.527344 6.089844 C 18.667969 6.582031 17.757812 7.023438 16.824219 7.402344 L 16.484375 6.550781 C 17.378906 6.1875 18.25 5.761719 19.078125 5.292969 Z M 22.074219 3.210938 C 22.242188 3.070312 22.488281 3.070312 22.660156 3.210938 C 23.03125 3.523438 23.429688 3.828125 23.835938 4.121094 L 23.308594 4.871094 C 22.988281 4.640625 22.671875 4.402344 22.367188 4.15625 C 22.066406 4.402344 21.75 4.640625 21.429688 4.871094 L 20.898438 4.125 C 21.308594 3.832031 21.703125 3.527344 22.074219 3.210938 Z M 30.285156 7.257812 C 31.195312 7.53125 32.136719 7.753906 33.089844 7.917969 L 32.9375 8.820312 C 31.949219 8.652344 30.96875 8.421875 30.023438 8.140625 Z M 33.820312 26.996094 L 32.9375 27.21875 C 32.6875 26.214844 32.527344 25.144531 32.460938 24.039062 L 33.375 23.984375 C 33.433594 25.035156 33.585938 26.046875 33.820312 26.996094 Z M 33.375 21.6875 L 32.464844 21.632812 C 32.527344 20.527344 32.6875 19.457031 32.9375 18.453125 L 33.824219 18.675781 C 33.585938 19.625 33.4375 20.636719 33.375 21.6875 Z M 35.324219 13.355469 L 36.050781 13.910156 C 35.453125 14.703125 34.945312 15.582031 34.542969 16.519531 L 33.707031 16.15625 C 34.136719 15.152344 34.683594 14.210938 35.324219 13.355469 Z M 35.238281 8.1875 C 35.730469 8.226562 36.230469 8.253906 36.730469 8.265625 C 36.867188 8.269531 36.992188 8.332031 37.078125 8.441406 L 38.804688 10.65625 C 38.882812 10.753906 38.914062 10.882812 38.898438 11.007812 C 38.878906 11.132812 38.8125 11.242188 38.710938 11.316406 C 38.3125 11.597656 37.929688 11.90625 37.570312 12.238281 L 36.953125 11.558594 C 37.226562 11.3125 37.507812 11.074219 37.796875 10.851562 L 36.492188 9.175781 C 36.046875 9.164062 35.601562 9.136719 35.164062 9.101562 Z M 40.640625 33.417969 C 38.679688 32.332031 35.164062 29.46875 35.164062 22.839844 C 35.164062 16.210938 38.679688 13.34375 40.640625 12.261719 C 41.304688 11.890625 41.484375 11.121094 41.042969 10.554688 L 38.253906 6.976562 C 37.996094 6.644531 37.5625 6.441406 37.097656 6.433594 C 29.265625 6.347656 24.609375 2.621094 23 1.058594 C 22.660156 0.726562 22.058594 0.734375 21.722656 1.0625 C 20.121094 2.628906 15.503906 6.347656 7.621094 6.433594 C 7.15625 6.441406 6.722656 6.644531 6.464844 6.976562 L 3.675781 10.554688 C 3.234375 11.121094 3.414062 11.890625 4.082031 12.261719 C 6.042969 13.34375 9.554688 16.210938 9.554688 22.839844 C 9.554688 29.46875 6.042969 32.332031 4.082031 33.417969 C 3.414062 33.785156 3.234375 34.554688 3.675781 35.121094 L 6.464844 38.699219 C 6.722656 39.03125 7.15625 39.234375 7.621094 39.242188 C 15.460938 39.332031 20.117188 43.0625 21.722656 44.625 C 22.0625 44.953125 22.65625 44.953125 22.996094 44.625 C 24.601562 43.0625 29.261719 39.332031 37.097656 39.242188 C 37.5625 39.234375 37.996094 39.03125 38.253906 38.699219 L 41.042969 35.121094 C 41.484375 34.554688 41.304688 33.785156 40.640625 33.417969 " fill-opacity="1" fill-rule="nonzero"/></g><path fill="rgb(6.269836%, 5.879211%, 5.099487%)" d="M 22.367188 13.128906 C 21.183594 13.128906 20.21875 12.160156 20.21875 10.96875 C 20.21875 9.773438 21.183594 8.804688 22.367188 8.804688 C 23.554688 8.804688 24.515625 9.773438 24.515625 10.96875 C 24.515625 12.160156 23.554688 13.128906 22.367188 13.128906 Z M 22.367188 8.039062 C 20.761719 8.039062 19.460938 9.351562 19.460938 10.96875 C 19.460938 12.582031 20.761719 13.894531 22.367188 13.894531 C 23.972656 13.894531 25.277344 12.582031 25.277344 10.96875 C 25.277344 9.351562 23.972656 8.039062 22.367188 8.039062 " fill-opacity="1" fill-rule="nonzero"/></svg>