<svg xmlns="http://www.w3.org/2000/svg" viewBox="0 0 2834.65 2834.65"><defs><style>.cls-1{fill:#fff;}</style></defs><title>Bianco_Nero</title><g id="Sfondo"><rect class="cls-1" width="2834.65" height="2834.65"/></g><g id="Logo"><path d="M1233.88,1723.78,961.1,1524.86a96.68,96.68,0,0,1,0-156.24l272.78-198.92a24.17,24.17,0,0,1,38.41,19.53v52.52a48.33,48.33,0,0,1-19.86,39.06l-200.76,146.4a24.17,24.17,0,0,0,0,39.06l200.76,146.4a48.33,48.33,0,0,1,19.86,39.06v52.52a24.17,24.17,0,0,1-38.41,19.53Z"/><path d="M1265.21,762,688,1339.23a153,153,0,0,0-19.6,24q-4.11,6.24-7.6,12.86c-2.29,4.36-4.37,8.84-6.22,13.4s-3.46,9.17-4.85,13.87-2.55,9.45-3.47,14.25a153.34,153.34,0,0,0,0,58.34c.92,4.8,2.09,9.56,3.47,14.25s3,9.33,4.85,13.87,3.93,9,6.22,13.4,4.86,8.7,7.6,12.86,5.82,8.35,9,12.29A151.45,151.45,0,0,0,688,1554.25l621.79,621.8a152.06,152.06,0,0,0,215,0l621.79-621.8a155.67,155.67,0,0,0,10.56-11.67c3.21-3.94,6.23-8,9-12.29a147.09,147.09,0,0,0,7.6-12.86c2.3-4.36,4.37-8.84,6.22-13.4s3.46-9.17,4.85-13.87,2.55-9.45,3.48-14.25a153.88,153.88,0,0,0,0-58.34c-.93-4.8-2.09-9.56-3.48-14.25s-3-9.33-4.85-13.87-3.92-9-6.22-13.4a147.09,147.09,0,0,0-7.6-12.86,150.94,150.94,0,0,0-9-12.29,155.67,155.67,0,0,0-10.56-11.67L1531.1,723.7a24.17,24.17,0,0,0-41.26,17.09v891.7a24.18,24.18,0,0,0,38.41,19.53L1783,1466.27a24.17,24.17,0,0,0,0-39.06l-200.76-146.4a48.33,48.33,0,0,1-19.86-39.06v-52.52a24.18,24.18,0,0,1,38.42-19.53l272.78,198.92a96.7,96.7,0,0,1,0,156.24l-375.09,273.52a96.68,96.68,0,0,1-153.65-78.12V565.72a96.69,96.69,0,0,1,165-68.37l739.32,739.32c116,116,116,304.12,0,420.14L1627.39,2278.6a297.08,297.08,0,0,1-420.13,0l-621.8-621.79c-116-116-116-304.12,0-420.14L1231,591.11a24.17,24.17,0,0,1,41.26,17.09V744.94A24.15,24.15,0,0,1,1265.21,762Z"/></g></svg>