<svg xmlns="http://www.w3.org/2000/svg" xmlns:xlink="http://www.w3.org/1999/xlink" width="60" zoomAndPan="magnify" viewBox="0 0 45 44.999999" height="60" preserveAspectRatio="xMidYMid meet" version="1.0"><defs><clipPath id="id1"><path d="M 0 10.351562 L 45 10.351562 L 45 34.351562 L 0 34.351562 Z M 0 10.351562 " clip-rule="nonzero"/></clipPath></defs><g clip-path="url(#id1)"><path fill="rgb(13.729858%, 12.159729%, 12.548828%)" d="M 29.707031 31.230469 C 32.242188 29.171875 33.859375 26.054688 33.859375 22.566406 C 33.859375 19.28125 32.421875 16.320312 30.136719 14.269531 C 34.304688 15.832031 38.441406 18.621094 42.507812 22.621094 C 40.957031 24.359375 36.3125 29.0625 29.707031 31.230469 Z M 2.503906 22.511719 C 4.054688 20.773438 8.703125 16.070312 15.308594 13.902344 C 12.773438 15.960938 11.15625 19.078125 11.15625 22.566406 C 11.15625 25.851562 12.59375 28.8125 14.878906 30.863281 C 10.710938 29.300781 6.574219 26.511719 2.503906 22.511719 Z M 22.507812 31.789062 C 17.359375 31.789062 13.171875 27.652344 13.171875 22.566406 C 13.171875 17.480469 17.359375 13.347656 22.507812 13.347656 C 27.652344 13.347656 31.839844 17.480469 31.839844 22.566406 C 31.839844 27.652344 27.652344 31.789062 22.507812 31.789062 Z M 44.726562 23.101562 L 44.742188 23.074219 C 44.753906 23.054688 44.765625 23.035156 44.773438 23.015625 L 44.789062 22.984375 C 44.796875 22.964844 44.804688 22.945312 44.8125 22.925781 L 44.828125 22.890625 C 44.832031 22.875 44.839844 22.855469 44.84375 22.839844 C 44.847656 22.824219 44.851562 22.808594 44.855469 22.796875 C 44.859375 22.78125 44.863281 22.761719 44.867188 22.746094 C 44.867188 22.730469 44.871094 22.714844 44.875 22.699219 C 44.875 22.683594 44.878906 22.667969 44.878906 22.648438 C 44.878906 22.636719 44.882812 22.621094 44.882812 22.605469 C 44.882812 22.589844 44.882812 22.570312 44.882812 22.554688 C 44.882812 22.539062 44.882812 22.523438 44.878906 22.511719 C 44.878906 22.492188 44.878906 22.476562 44.875 22.457031 C 44.875 22.445312 44.875 22.429688 44.871094 22.417969 C 44.867188 22.398438 44.863281 22.382812 44.859375 22.363281 C 44.859375 22.347656 44.855469 22.335938 44.851562 22.324219 C 44.847656 22.304688 44.84375 22.289062 44.835938 22.269531 C 44.832031 22.257812 44.828125 22.242188 44.824219 22.230469 C 44.816406 22.214844 44.8125 22.195312 44.804688 22.179688 C 44.796875 22.167969 44.792969 22.152344 44.785156 22.140625 C 44.777344 22.125 44.769531 22.109375 44.761719 22.09375 C 44.753906 22.082031 44.746094 22.066406 44.738281 22.054688 C 44.730469 22.039062 44.71875 22.023438 44.710938 22.011719 C 44.703125 21.996094 44.691406 21.984375 44.683594 21.96875 L 44.652344 21.933594 L 44.617188 21.894531 L 44.597656 21.871094 C 36.917969 14.070312 28.929688 10.351562 20.828125 10.824219 C 8.570312 11.53125 0.667969 21.535156 0.339844 21.960938 L 0.332031 21.972656 C 0.316406 21.992188 0.300781 22.011719 0.289062 22.035156 L 0.273438 22.054688 C 0.261719 22.078125 0.25 22.097656 0.238281 22.121094 L 0.226562 22.144531 C 0.214844 22.167969 0.207031 22.1875 0.199219 22.207031 L 0.1875 22.238281 C 0.179688 22.257812 0.175781 22.277344 0.167969 22.296875 L 0.160156 22.332031 C 0.15625 22.351562 0.152344 22.371094 0.148438 22.390625 L 0.140625 22.429688 C 0.140625 22.449219 0.136719 22.46875 0.136719 22.488281 L 0.132812 22.523438 C 0.132812 22.542969 0.132812 22.5625 0.132812 22.582031 L 0.132812 22.617188 C 0.132812 22.640625 0.136719 22.660156 0.136719 22.679688 L 0.144531 22.710938 C 0.144531 22.734375 0.148438 22.753906 0.15625 22.773438 L 0.160156 22.804688 C 0.167969 22.828125 0.171875 22.847656 0.179688 22.867188 L 0.191406 22.898438 C 0.195312 22.917969 0.203125 22.9375 0.210938 22.957031 L 0.226562 22.988281 C 0.234375 23.007812 0.246094 23.023438 0.253906 23.042969 L 0.273438 23.078125 C 0.285156 23.09375 0.292969 23.109375 0.304688 23.125 L 0.332031 23.160156 C 0.34375 23.175781 0.351562 23.1875 0.363281 23.203125 L 0.394531 23.238281 L 0.417969 23.261719 C 7.664062 30.625 15.199219 34.347656 22.828125 34.347656 C 23.28125 34.347656 23.734375 34.335938 24.1875 34.308594 C 36.445312 33.601562 44.34375 23.597656 44.675781 23.171875 L 44.683594 23.160156 C 44.699219 23.140625 44.714844 23.121094 44.726562 23.101562 " fill-opacity="1" fill-rule="nonzero"/></g><path fill="rgb(13.729858%, 12.159729%, 12.548828%)" d="M 22.507812 26.960938 C 20.054688 26.960938 18.058594 24.988281 18.058594 22.566406 C 18.058594 20.144531 20.054688 18.171875 22.507812 18.171875 C 24.960938 18.171875 26.957031 20.144531 26.957031 22.566406 C 26.957031 24.988281 24.960938 26.960938 22.507812 26.960938 Z M 22.507812 16.175781 C 18.941406 16.175781 16.039062 19.042969 16.039062 22.566406 C 16.039062 26.089844 18.941406 28.957031 22.507812 28.957031 C 26.074219 28.957031 28.976562 26.089844 28.976562 22.566406 C 28.976562 19.042969 26.074219 16.175781 22.507812 16.175781 " fill-opacity="1" fill-rule="nonzero"/></svg>