<svg xmlns="http://www.w3.org/2000/svg" xmlns:xlink="http://www.w3.org/1999/xlink" width="60" zoomAndPan="magnify" viewBox="0 0 45 44.999999" height="60" preserveAspectRatio="xMidYMid meet" version="1.0"><defs><clipPath id="id1"><path d="M 2.25 24 L 42.75 24 L 42.75 40.5 L 2.25 40.5 Z M 2.25 24 " clip-rule="nonzero"/></clipPath><clipPath id="id2"><path d="M 17 4.5 L 40 4.5 L 40 26 L 17 26 Z M 17 4.5 " clip-rule="nonzero"/></clipPath></defs><g clip-path="url(#id1)"><path fill="rgb(0%, 0%, 0%)" d="M 41.519531 29.703125 C 41.050781 29.640625 40.519531 29.742188 40.066406 29.90625 C 37.34375 30.886719 34.75 32.03125 32.03125 33.042969 C 31.898438 33.089844 31.746094 33.148438 31.65625 33.25 C 30.949219 34.074219 30.019531 34.410156 28.976562 34.421875 C 27.285156 34.441406 25.597656 34.496094 23.910156 34.535156 C 22.765625 34.5625 21.621094 34.59375 20.472656 34.613281 C 20.183594 34.617188 19.820312 34.296875 19.800781 33.964844 C 19.78125 33.628906 20.015625 33.511719 20.308594 33.484375 C 20.425781 33.472656 20.542969 33.464844 20.660156 33.460938 C 22.082031 33.425781 23.507812 33.390625 24.929688 33.355469 C 26.429688 33.316406 27.925781 33.308594 29.421875 33.234375 C 30.46875 33.183594 31.179688 32.414062 31.195312 31.417969 C 31.214844 30.351562 30.382812 29.546875 29.246094 29.566406 C 27.566406 29.601562 25.441406 29.371094 23.71875 29.105469 C 21.667969 28.792969 20.671875 27.75 18.683594 27.117188 C 15.617188 26.140625 12.480469 26.496094 9.316406 26.558594 C 9.3125 26.339844 9.304688 26.121094 9.300781 25.902344 C 9.28125 25.214844 8.945312 24.914062 8.238281 24.929688 C 6.390625 24.972656 4.542969 25.015625 2.695312 25.0625 C 2.582031 25.066406 2.46875 25.078125 2.261719 25.09375 C 2.363281 26.074219 2.433594 27.023438 2.570312 27.96875 C 3.074219 31.484375 4.3125 34.734375 6.25 37.71875 C 6.335938 37.855469 6.558594 37.980469 6.722656 37.984375 C 7.355469 38 7.984375 37.972656 8.617188 37.949219 C 9.238281 37.929688 9.585938 37.578125 9.570312 36.945312 C 9.566406 36.765625 9.558594 36.585938 9.554688 36.410156 C 9.558594 36.410156 9.5625 36.410156 9.566406 36.410156 C 10.988281 36.8125 12.402344 37.238281 13.824219 37.644531 C 16.46875 38.402344 19.097656 39.21875 21.765625 39.882812 C 23.980469 40.433594 26.210938 40.5 28.316406 39.351562 C 32.769531 36.917969 37.230469 34.492188 41.683594 32.050781 C 41.90625 31.929688 42.109375 31.730469 42.257812 31.523438 C 42.761719 30.816406 42.382812 29.8125 41.519531 29.703125 " fill-opacity="1" fill-rule="nonzero"/></g><g clip-path="url(#id2)"><path fill="rgb(0%, 0%, 0%)" d="M 32.964844 14.753906 C 32.308594 15.289062 31.664062 15.835938 31 16.359375 C 30.820312 16.503906 30.78125 16.636719 30.839844 16.851562 C 31.050781 17.648438 31.238281 18.449219 31.4375 19.246094 C 31.515625 19.550781 31.445312 19.808594 31.1875 20.003906 C 30.96875 20.167969 30.671875 20.164062 30.390625 19.988281 C 29.664062 19.53125 28.929688 19.082031 28.207031 18.617188 C 28.046875 18.515625 27.941406 18.523438 27.785156 18.621094 C 27.089844 19.058594 26.382812 19.484375 25.6875 19.917969 C 25.484375 20.039062 25.277344 20.109375 25.042969 20.054688 C 24.691406 19.972656 24.488281 19.621094 24.574219 19.261719 C 24.796875 18.390625 25.015625 17.519531 25.246094 16.652344 C 25.28125 16.519531 25.25 16.445312 25.15625 16.363281 C 24.535156 15.847656 23.917969 15.328125 23.296875 14.808594 C 23.066406 14.621094 22.859375 14.425781 22.882812 14.085938 C 22.90625 13.761719 23.152344 13.503906 23.484375 13.480469 C 24.398438 13.421875 25.3125 13.359375 26.222656 13.304688 C 26.367188 13.296875 26.410156 13.222656 26.457031 13.113281 C 26.765625 12.363281 27.074219 11.613281 27.386719 10.863281 C 27.414062 10.796875 27.4375 10.726562 27.472656 10.65625 C 27.601562 10.402344 27.808594 10.261719 28.101562 10.265625 C 28.394531 10.269531 28.59375 10.414062 28.703125 10.683594 C 29.027344 11.492188 29.355469 12.296875 29.671875 13.105469 C 29.738281 13.269531 29.8125 13.347656 30.007812 13.355469 C 30.808594 13.398438 31.605469 13.464844 32.40625 13.527344 C 32.523438 13.539062 32.644531 13.550781 32.761719 13.582031 C 33.054688 13.667969 33.230469 13.921875 33.230469 14.253906 C 33.242188 14.464844 33.125 14.621094 32.964844 14.753906 Z M 38.632812 13.269531 C 38.238281 12.984375 37.902344 12.609375 37.660156 12.148438 C 37.292969 11.457031 37.210938 10.695312 37.371094 9.988281 C 37.507812 9.359375 37.074219 8.738281 36.433594 8.65625 C 35.949219 8.589844 35.472656 8.414062 35.039062 8.121094 C 34.386719 7.679688 33.953125 7.046875 33.75 6.34375 C 33.578125 5.730469 32.898438 5.390625 32.292969 5.617188 C 31.832031 5.789062 31.332031 5.855469 30.8125 5.800781 C 30.027344 5.71875 29.339844 5.363281 28.832031 4.839844 C 28.621094 4.621094 28.339844 4.511719 28.054688 4.511719 C 27.769531 4.511719 27.488281 4.621094 27.28125 4.839844 C 26.769531 5.363281 26.082031 5.71875 25.296875 5.800781 C 24.78125 5.855469 24.277344 5.789062 23.816406 5.617188 C 23.210938 5.390625 22.53125 5.730469 22.359375 6.34375 C 22.160156 7.046875 21.722656 7.679688 21.074219 8.121094 C 20.640625 8.414062 20.160156 8.589844 19.675781 8.65625 C 19.035156 8.738281 18.601562 9.359375 18.738281 9.988281 C 18.898438 10.695312 18.816406 11.457031 18.453125 12.148438 C 18.214844 12.609375 17.875 12.984375 17.476562 13.269531 C 16.953125 13.644531 16.863281 14.394531 17.285156 14.878906 C 17.761719 15.429688 18.054688 16.140625 18.066406 16.925781 C 18.074219 17.445312 17.957031 17.933594 17.742188 18.371094 C 17.460938 18.945312 17.734375 19.648438 18.339844 19.878906 C 19.019531 20.140625 19.621094 20.628906 20.003906 21.316406 C 20.253906 21.765625 20.386719 22.257812 20.410156 22.742188 C 20.433594 23.382812 21.015625 23.867188 21.660156 23.789062 C 22.378906 23.699219 23.140625 23.851562 23.800781 24.277344 C 24.242188 24.554688 24.59375 24.925781 24.839844 25.34375 C 25.167969 25.894531 25.910156 26.046875 26.441406 25.679688 C 26.90625 25.351562 27.460938 25.144531 28.054688 25.097656 C 28.648438 25.144531 29.203125 25.351562 29.671875 25.679688 C 30.199219 26.046875 30.941406 25.894531 31.269531 25.34375 C 31.519531 24.925781 31.867188 24.554688 32.308594 24.277344 C 32.972656 23.851562 33.730469 23.699219 34.453125 23.789062 C 35.09375 23.867188 35.679688 23.382812 35.707031 22.742188 C 35.726562 22.257812 35.855469 21.765625 36.109375 21.316406 C 36.492188 20.628906 37.089844 20.140625 37.773438 19.878906 C 38.375 19.648438 38.652344 18.945312 38.367188 18.371094 C 38.152344 17.933594 38.035156 17.445312 38.042969 16.925781 C 38.058594 16.140625 38.351562 15.429688 38.828125 14.878906 C 39.25 14.394531 39.15625 13.644531 38.632812 13.269531 " fill-opacity="1" fill-rule="nonzero"/></g></svg>