<svg xmlns="http://www.w3.org/2000/svg" xmlns:xlink="http://www.w3.org/1999/xlink" width="60" zoomAndPan="magnify" viewBox="0 0 45 44.999999" height="60" preserveAspectRatio="xMidYMid meet" version="1.0"><defs><clipPath id="id1"><path d="M 12.742188 0 L 20 0 L 20 9 L 12.742188 9 Z M 12.742188 0 " clip-rule="nonzero"/></clipPath><clipPath id="id2"><path d="M 12.742188 9 L 20 9 L 20 18 L 12.742188 18 Z M 12.742188 9 " clip-rule="nonzero"/></clipPath><clipPath id="id3"><path d="M 25 13 L 32.242188 13 L 32.242188 22 L 25 22 Z M 25 13 " clip-rule="nonzero"/></clipPath><clipPath id="id4"><path d="M 12.742188 27 L 20 27 L 20 36 L 12.742188 36 Z M 12.742188 27 " clip-rule="nonzero"/></clipPath><clipPath id="id5"><path d="M 12.742188 36 L 20 36 L 20 45 L 12.742188 45 Z M 12.742188 36 " clip-rule="nonzero"/></clipPath></defs><g clip-path="url(#id1)"><path fill="rgb(0%, 0%, 0%)" d="M 13.464844 8.507812 C 13.949219 8.851562 14.675781 8.851562 15.160156 8.472656 L 16.40625 7.503906 C 16.40625 7.503906 17.648438 8.472656 17.648438 8.472656 C 18.132812 8.851562 18.859375 8.851562 19.34375 8.507812 C 19.863281 8.125 20.035156 7.503906 19.828125 6.914062 C 19.828125 6.914062 17.71875 1.34375 17.71875 1.34375 C 17.269531 0.167969 15.542969 0.167969 15.089844 1.34375 L 12.984375 6.914062 C 12.742188 7.503906 12.949219 8.160156 13.464844 8.507812 Z M 16.40625 1.828125 L 18.515625 7.398438 L 16.578125 5.910156 C 16.542969 5.878906 16.476562 5.84375 16.40625 5.84375 C 16.335938 5.84375 16.265625 5.878906 16.234375 5.910156 L 14.296875 7.398438 Z M 16.40625 1.828125 " fill-opacity="1" fill-rule="nonzero"/></g><g clip-path="url(#id2)"><path fill="rgb(0%, 0%, 0%)" d="M 17.71875 10.375 C 17.511719 9.820312 16.992188 9.476562 16.40625 9.476562 C 15.816406 9.476562 15.300781 9.855469 15.089844 10.375 L 12.984375 16.117188 C 12.773438 16.707031 12.984375 17.363281 13.5 17.707031 C 14.019531 18.054688 14.710938 18.054688 15.195312 17.675781 L 16.441406 16.707031 C 16.441406 16.707031 17.683594 17.675781 17.683594 17.675781 C 18.167969 18.054688 18.894531 18.089844 19.378906 17.707031 C 19.898438 17.363281 20.105469 16.707031 19.898438 16.117188 Z M 16.578125 15.042969 C 16.542969 15.011719 16.476562 14.976562 16.40625 14.976562 C 16.335938 14.976562 16.265625 15.011719 16.234375 15.042969 L 14.296875 16.566406 L 16.40625 10.824219 L 18.515625 16.566406 Z M 16.578125 15.042969 " fill-opacity="1" fill-rule="nonzero"/></g><g clip-path="url(#id3)"><path fill="rgb(0%, 0%, 0%)" d="M 32.207031 14.628906 C 32.207031 14.042969 31.824219 13.523438 31.273438 13.347656 C 31.132812 13.28125 30.960938 13.28125 30.789062 13.28125 C 30.375 13.28125 29.957031 13.453125 29.714844 13.800781 L 25.878906 18.296875 C 25.464844 18.78125 25.464844 19.472656 25.808594 19.957031 C 26.15625 20.441406 26.847656 20.683594 27.433594 20.476562 L 28.851562 19.992188 C 28.851562 19.992188 29.648438 21.238281 29.648438 21.238281 C 29.992188 21.757812 30.648438 22 31.238281 21.824219 C 31.824219 21.652344 32.242188 21.097656 32.242188 20.476562 Z M 29.542969 18.539062 C 29.507812 18.46875 29.40625 18.402344 29.300781 18.402344 C 29.265625 18.402344 29.234375 18.402344 29.199219 18.402344 L 26.917969 19.195312 L 30.753906 14.628906 L 30.789062 20.511719 Z M 29.542969 18.539062 " fill-opacity="1" fill-rule="nonzero"/></g><g clip-path="url(#id4)"><path fill="rgb(0%, 0%, 0%)" d="M 17.71875 28.328125 C 17.511719 27.777344 16.992188 27.429688 16.40625 27.429688 C 15.816406 27.429688 15.300781 27.777344 15.089844 28.328125 L 12.984375 33.898438 C 12.773438 34.488281 12.949219 35.144531 13.464844 35.492188 C 13.949219 35.835938 14.675781 35.835938 15.160156 35.457031 L 16.40625 34.488281 C 16.40625 34.488281 17.648438 35.457031 17.648438 35.457031 C 18.132812 35.835938 18.859375 35.835938 19.34375 35.492188 C 19.863281 35.109375 20.035156 34.488281 19.828125 33.898438 Z M 16.578125 32.894531 C 16.542969 32.859375 16.476562 32.828125 16.40625 32.828125 C 16.335938 32.828125 16.265625 32.859375 16.234375 32.894531 L 14.296875 34.382812 L 16.40625 28.8125 L 18.515625 34.382812 Z M 16.578125 32.894531 " fill-opacity="1" fill-rule="nonzero"/></g><g clip-path="url(#id5)"><path fill="rgb(0%, 0%, 0%)" d="M 17.71875 37.324219 C 17.511719 36.769531 16.992188 36.425781 16.40625 36.425781 C 15.816406 36.425781 15.300781 36.769531 15.089844 37.324219 L 12.984375 42.894531 C 12.773438 43.480469 12.949219 44.140625 13.464844 44.484375 C 13.949219 44.832031 14.675781 44.832031 15.160156 44.449219 L 16.40625 43.480469 C 16.40625 43.480469 17.648438 44.449219 17.648438 44.449219 C 18.132812 44.832031 18.859375 44.832031 19.34375 44.484375 C 19.863281 44.105469 20.035156 43.480469 19.828125 42.894531 Z M 16.578125 41.890625 C 16.542969 41.855469 16.476562 41.820312 16.40625 41.820312 C 16.335938 41.820312 16.265625 41.855469 16.234375 41.890625 L 14.296875 43.378906 L 16.40625 37.808594 L 18.515625 43.378906 Z M 16.578125 41.890625 " fill-opacity="1" fill-rule="nonzero"/></g><path fill="rgb(0%, 0%, 0%)" d="M 17.097656 22.273438 C 17.097656 22.464844 17.03125 22.628906 16.894531 22.765625 C 16.757812 22.898438 16.597656 22.96875 16.40625 22.96875 C 16.214844 22.96875 16.050781 22.898438 15.917969 22.765625 C 15.78125 22.628906 15.714844 22.464844 15.714844 22.273438 C 15.714844 22.085938 15.78125 21.921875 15.917969 21.785156 C 16.050781 21.652344 16.214844 21.582031 16.40625 21.582031 C 16.597656 21.582031 16.757812 21.652344 16.894531 21.785156 C 17.03125 21.921875 17.097656 22.085938 17.097656 22.273438 Z M 17.097656 22.273438 " fill-opacity="1" fill-rule="nonzero"/><path fill="rgb(0%, 0%, 0%)" d="M 19.585938 24.039062 C 19.585938 24.230469 19.519531 24.394531 19.382812 24.527344 C 19.25 24.664062 19.085938 24.730469 18.894531 24.730469 C 18.703125 24.730469 18.539062 24.664062 18.40625 24.527344 C 18.269531 24.394531 18.203125 24.230469 18.203125 24.039062 C 18.203125 23.847656 18.269531 23.683594 18.40625 23.550781 C 18.539062 23.414062 18.703125 23.347656 18.894531 23.347656 C 19.085938 23.347656 19.25 23.414062 19.382812 23.550781 C 19.519531 23.683594 19.585938 23.847656 19.585938 24.039062 Z M 19.585938 24.039062 " fill-opacity="1" fill-rule="nonzero"/><path fill="rgb(0%, 0%, 0%)" d="M 22.664062 24.523438 C 22.664062 24.714844 22.597656 24.878906 22.460938 25.011719 C 22.324219 25.148438 22.164062 25.214844 21.972656 25.214844 C 21.78125 25.214844 21.617188 25.148438 21.484375 25.011719 C 21.347656 24.878906 21.28125 24.714844 21.28125 24.523438 C 21.28125 24.332031 21.347656 24.167969 21.484375 24.035156 C 21.617188 23.898438 21.78125 23.832031 21.972656 23.832031 C 22.164062 23.832031 22.324219 23.898438 22.460938 24.035156 C 22.597656 24.167969 22.664062 24.332031 22.664062 24.523438 Z M 22.664062 24.523438 " fill-opacity="1" fill-rule="nonzero"/><path fill="rgb(0%, 0%, 0%)" d="M 25.707031 23.902344 C 25.707031 24.09375 25.636719 24.253906 25.503906 24.390625 C 25.367188 24.527344 25.207031 24.59375 25.015625 24.59375 C 24.824219 24.59375 24.660156 24.527344 24.527344 24.390625 C 24.390625 24.253906 24.324219 24.09375 24.324219 23.902344 C 24.324219 23.710938 24.390625 23.546875 24.527344 23.410156 C 24.660156 23.277344 24.824219 23.210938 25.015625 23.210938 C 25.207031 23.210938 25.367188 23.277344 25.503906 23.410156 C 25.636719 23.546875 25.707031 23.710938 25.707031 23.902344 Z M 25.707031 23.902344 " fill-opacity="1" fill-rule="nonzero"/><path fill="rgb(0%, 0%, 0%)" d="M 28.332031 22.308594 C 28.332031 22.5 28.265625 22.664062 28.132812 22.800781 C 27.996094 22.933594 27.832031 23 27.640625 23 C 27.453125 23 27.289062 22.933594 27.152344 22.800781 C 27.019531 22.664062 26.949219 22.5 26.949219 22.308594 C 26.949219 22.117188 27.019531 21.957031 27.152344 21.820312 C 27.289062 21.683594 27.453125 21.617188 27.640625 21.617188 C 27.832031 21.617188 27.996094 21.683594 28.132812 21.820312 C 28.265625 21.957031 28.332031 22.117188 28.332031 22.308594 Z M 28.332031 22.308594 " fill-opacity="1" fill-rule="nonzero"/></svg>